<svg width="10" height="19" viewBox="0 0 10 19" fill="none" xmlns="http://www.w3.org/2000/svg">
<path d="M9.30767 0.153425C9.30767 1.23485 9.30767 3.10932 9.30767 3.10932C9.30767 3.10932 6.99998 2.89303 6.3846 3.75817C6.0769 4.19074 6.23075 5.56055 6.23075 6.49778C7.23075 6.49778 8.30767 6.49778 9.30767 6.49778C9.0769 7.6513 8.84614 8.37225 8.69229 9.38158C7.76921 9.38158 6.23075 9.38158 6.23075 9.38158V18.6097C6.23075 18.6097 3.30767 18.6097 1.92306 18.6097C1.92306 15.798 1.92306 12.4096 1.92306 9.38158C1.23075 9.38158 0.769212 9.38158 0.0769043 9.38158C0.0769043 8.37225 0.0769043 7.5792 0.0769043 6.49778C0.692289 6.49778 1.23075 6.49778 1.92306 6.49778C1.99998 4.40703 1.99998 2.31627 3.15383 1.23485C4.3846 0.00923483 5.61537 0.153425 9.30767 0.153425Z" fill="black"/>
</svg>
