<svg width="21" height="19" viewBox="0 0 21 19" fill="none" xmlns="http://www.w3.org/2000/svg">
<path fill-rule="evenodd" clip-rule="evenodd" d="M17.7587 18.6153H2.98949C1.60488 18.6153 0.527954 17.6057 0.527954 16.3077V2.4615C0.527954 1.16342 1.60488 0.153809 2.98949 0.153809H17.7587C19.1433 0.153809 20.2203 1.16342 20.2203 2.4615V16.3077C20.2203 17.6057 19.1433 18.6153 17.7587 18.6153ZM10.3741 5.77881C8.83565 5.77881 7.52795 6.64419 6.91257 7.87015C6.91257 7.87015 6.91257 7.89419 6.91257 7.94227C6.86129 7.99035 6.81001 8.06246 6.75872 8.15862C6.75872 8.20669 6.75872 8.25477 6.75872 8.30285C6.70744 8.35092 6.6818 8.42304 6.6818 8.51919C6.6818 8.56727 6.6818 8.61535 6.6818 8.66342C6.63052 8.7115 6.60488 8.78362 6.60488 8.87977C6.60488 8.92785 6.60488 8.97592 6.60488 9.024C6.5536 9.12016 6.52795 9.24035 6.52795 9.38458C6.52795 11.3317 8.29718 12.9903 10.3741 12.9903C12.451 12.9903 14.2203 11.3317 14.2203 9.38458C14.2203 9.24035 14.1946 9.12016 14.1433 9.024C14.1433 8.97592 14.1433 8.92785 14.1433 8.87977C14.1433 8.78362 14.1177 8.7115 14.0664 8.66342C14.0664 8.61535 14.0664 8.56727 14.0664 8.51919C14.0664 8.42304 14.0408 8.35092 13.9895 8.30285C13.9895 8.25477 13.9895 8.20669 13.9895 8.15862C13.9382 8.06246 13.8869 7.99035 13.8356 7.94227C13.8356 7.89419 13.8356 7.87015 13.8356 7.87015C13.2203 6.64419 11.9126 5.77881 10.3741 5.77881ZM17.9895 3.18266C17.9895 2.67785 17.528 2.24515 16.9895 2.24515H15.0664C14.528 2.24515 14.0664 2.67785 14.0664 3.18266V4.98554C14.0664 5.49035 14.528 5.92304 15.0664 5.92304H16.9895C17.528 5.92304 17.9895 5.49035 17.9895 4.98554V3.18266ZM17.9895 7.94227H16.2203C16.3228 8.42304 16.3741 8.92785 16.3741 9.45669C16.3741 12.5577 13.6818 15.0817 10.3741 15.0817C7.06642 15.0817 4.37411 12.5577 4.37411 9.45669C4.37411 8.92785 4.42539 8.42304 4.52795 7.94227H2.75872V15.6586C2.75872 16.1634 3.22026 16.5961 3.75872 16.5961H16.9895C17.528 16.5961 17.9895 16.1634 17.9895 15.6586V7.94227Z" fill="black"/>
</svg>
