<svg width="24" height="20" viewBox="0 0 24 20" fill="none" xmlns="http://www.w3.org/2000/svg">
<path d="M16.2727 0.54541C18.0909 0.54541 19.0909 1.18177 20.0909 1.99996C20.8182 1.99996 21.9091 1.54541 22.5454 1.18177C22.7273 1.12117 22.9091 1.03026 23.0909 0.909047C22.7273 1.81814 22.2727 2.54541 21.5454 3.09086C21.3636 3.27268 21.2727 3.4545 21 3.54541C22.0909 3.54541 22.9091 2.99996 23.7273 2.81814C23.2727 3.4545 22.7273 4.18177 22.0909 4.63632C21.8485 4.81814 21.606 5.03026 21.3636 5.27268C21.3636 6.36359 21.3636 7.36359 21.1818 8.27268C19.9091 13.6363 16.8182 17.2727 11.8182 18.909C9.99998 19.4545 7.09089 19.6363 4.99998 19.1818C3.99998 18.909 3.09089 18.6363 2.1818 18.2727C1.75756 18.0303 1.33332 17.7878 0.909074 17.5454C0.727256 17.4242 0.575741 17.3333 0.454529 17.2727C0.909074 17.2727 1.45453 17.4545 1.99998 17.3636C2.45453 17.2727 2.90907 17.2727 3.36362 17.1818C4.45453 16.909 5.36362 16.6363 6.1818 16.1818C6.63635 15.909 7.1818 15.6363 7.54544 15.2727C6.99998 15.2727 6.45453 15.1818 6.09089 15.0909C4.54544 14.5454 3.63635 13.5454 3.09089 12C3.54544 12.0909 4.90907 12.1818 5.1818 11.909C4.63635 11.909 3.99998 11.5454 3.63635 11.2727C2.36362 10.4545 1.36362 9.18177 1.36362 7.18177C1.54544 7.24238 1.72726 7.33329 1.90907 7.4545C2.1818 7.54541 2.45453 7.63632 2.90907 7.72723C2.99998 7.72723 3.36362 7.81814 3.54544 7.72723C3.54544 7.72723 3.51514 7.72723 3.45453 7.72723C3.27271 7.4545 2.81817 7.27268 2.63635 6.99996C1.81817 5.99996 1.09089 4.4545 1.54544 2.63632C1.63635 2.18177 1.81817 1.81814 2.09089 1.4545C2.1818 1.63632 2.36362 1.72723 2.54544 1.90905C2.90907 2.4545 3.45453 2.90905 3.90907 3.27268C5.63635 4.63632 7.27271 5.4545 9.81816 6.09086C10.4545 6.27268 11.1818 6.36359 11.9091 6.36359C11.7273 5.72723 11.7273 4.72723 11.9091 4.18177C12.3636 2.63632 13.2727 1.54541 14.6363 0.909047C14.9394 0.787834 15.303 0.696925 15.7273 0.636319C15.9091 0.575713 16.0909 0.54541 16.2727 0.54541Z" fill="black"/>
</svg>
